# xmcd
#
# Track frame offsets:
# 150
# 15352
# 29922
# 42527
# 58647
# 71410
# 87660
# 101787
# 117192
# 131450
# 145115
# 160372
#
# Disc length: 2309 seconds
#
# Revision: 0
# Processed by: cddbd v1.4PL0 Copyright (c) Steve Scherf et al.
# Submitted via: plextools 2.08
#
DISCID=aa09030c
DTITLE=Louis Armstrong - The Best of Satchmo
DYEAR=1989
DGENRE=Blues
TTITLE0=Louis Armstrong - Struttin' With Some Barbecue
TTITLE1=Louis Armstrong - Confessin'
TTITLE2=Louis Armstrong - When The Saints Go Marchin' In
TTITLE3=Louis Armstrong - Stardust
TTITLE4=Louis Armstrong - Saint Louis Blues
TTITLE5=Louis Armstrong - Basin Street Blues
TTITLE6=Louis Armstrong - Mahogany Hall Stomp
TTITLE7=Louis Armstrong - Georgia On My Mind
TTITLE8=Louis Armstrong - Black And Blue
TTITLE9=Louis Armstrong - All Of Me
TTITLE10=Louis Armstrong - Chinatown My Chinatown
TTITLE11=Louis Armstrong - Just You Just Me
EXTD=
EXTT0=
EXTT1=
EXTT2=
EXTT3=
EXTT4=
EXTT5=
EXTT6=
EXTT7=
EXTT8=
EXTT9=
EXTT10=
EXTT11=
PLAYORDER=
